# xmcd
#
# Track frame offsets: 
#        150
#        18706
#        34974
#        50722
#        67409
#        81085
#        101282
#        114939
#        134342
#        152700
#        170573
#        190708
#        206831
#        222123
#        236683
#        250108
#        258836
#        277759
#        295741
#        312093
#        331786
#
# Disc length: 4753 seconds
#
# Revision: 0
# Processed by: cddbd v1.5.2PL0 Copyright (c) Steve Scherf et al.
# Submitted via: ExactAudioCopy v0.99pb4
#
DISCID=2d128f15
DTITLE=Various Artist - prevue promo 1126A-1
DYEAR=2003
DGENRE=pop
TTITLE0=Tori Amos - Mary
TTITLE1=Tony Rich Project, The - Red Wine(Radio Edit)
TTITLE2=Calling, The - Wherever You Will Go( Movie "Love Actually")
TTITLE3=Kelly Clarkson - Trouble With Love Is, The( Movie "Love Actual
TTITLE3=ly)
TTITLE4=Tom Jones with Stereophonics - Mama Told Me Not To Come
TTITLE5=Alicia Keys - You Don't Know My Name(Radio Edit)
TTITLE6=Willa Ford feat. May - A Toast To Men(Edited no Intro)
TTITLE7=Wyclef Jean feat. Sharissa - Take Me As I Am( Movie "Love Actu
TTITLE7=ally")
TTITLE8=Wyclef Jean feat. Missy Elliott - Party To Damascus(Squeaky Cl
TTITLE8=ean Edit)
TTITLE9=Beyonce - Me, Myself and I
TTITLE10=Phoebe Snow - Baby, I Need Your Loving
TTITLE11=Sweetlou - She's Got A Way
TTITLE12=Crash Test Dummies - Flying Feeling
TTITLE13=Paul Westerberg - Dirty Diesel
TTITLE14=Superchic(k) - Me Against The World
TTITLE15=Liam Lynch - Still Wasted From The Party Last Night
TTITLE16=Default - Taking My Life Away
TTITLE17=Staind - How About You
TTITLE18=Rancid - Red Hot Moon
TTITLE19=Godsmack - Re-Align
TTITLE20=Coldplay - Moses(Live Album Version - Applause Tag)
EXTD=
EXTT0=
EXTT1=
EXTT2=
EXTT3=
EXTT4=
EXTT5=
EXTT6=
EXTT7=
EXTT8=
EXTT9=
EXTT10=
EXTT11=
EXTT12=
EXTT13=
EXTT14=
EXTT15=
EXTT16=
EXTT17=
EXTT18=
EXTT19=
EXTT20=
PLAYORDER=
